<?xml version="1.0" encoding="utf-8"?>
<svg xmlns="http://www.w3.org/2000/svg" viewBox="0 0 288 291">
  <g stroke="none" fill="#000000" transform="translate(0.000000,300.000000) scale(0.100000,-0.100000)">
    <path d="M753 2850 c-41 -25 -61 -64 -79 -157 -22 -119 -15 -268 22 -440 15 -72 15 -72 -11 -123 -32 -64 -61 -174 -71 -269 l-7 -71 -41 0 c-47 0 -86 -22 -86 -49 0 -28 21 -40 80 -43 l54 -3 14 -65 c22 -101 22 -101 -23 -117 -52 -18 -79 -45 -71 -71 10 -31 32 -34 89 -12 67 26 69 25 90 -7 9 -16 34 -48 57 -73 22 -25 40 -48 40 -51 0 -3 -11 -12 -25 -19 -30 -16 -41 -46 -25 -65 18 -22 52 -18 89 9 l33 24 71 -38 c257 -138 635 -169 966 -79 72 19 189 70 242 105 26 17 27 16 72 -15 50 -36 81 -36 93 2 5 17 -1 28 -28 51 l-35 30 48 58 c26 32 52 65 57 74 9 15 14 15 68 -3 74 -25 107 -17 102 24 -3 24 -11 31 -61 48 -49 17 -58 23 -54 40 3 11 13 50 22 87 l18 67 61 3 c57 3 61 5 64 29 4 34 -16 48 -77 56 l-51 6 0 39 c0 64 -29 187 -65 277 l-34 83 21 87 c18 71 22 115 22 256 0 154 -2 175 -22 227 -29 71 -61 98 -116 98 -78 0 -222 -86 -334 -198 l-65 -65 -96 19 c-129 26 -362 26 -479 1 l-82 -18 -83 76 c-99 92 -202 162 -264 181 -60 18 -72 18 -110 -6z m144 -102 c61 -30 178 -132 242 -212 24 -30 35 -31 129 -11 l32 8 0 -70 c0 -170 53 -296 105 -253 20 16 19 32 -5 108 -13 42 -20 92 -20 147 l0 82 50 7 c28 4 55 4 60 1 6 -4 10 -61 10 -130 0 -140 3 -155 34 -155 41 0 46 17 46 150 0 70 2 129 4 131 2 2 27 2 55 1 l51 -4 0 -71 c0 -40 -7 -101 -16 -137 -9 -36 -16 -81 -17 -100 -2 -30 2 -36 21 -38 13 -2 29 2 37 8 24 20 46 105 54 210 4 55 10 102 12 104 2 2 31 -1 63 -7 l59 -11 61 66 c108 117 248 213 299 206 39 -5 58 -65 64 -197 6 -123 -14 -290 -43 -360 -13 -31 -12 -38 17 -104 39 -89 66 -182 75 -257 6 -58 6 -58 -22 -64 -16 -3 -59 -5 -97 -5 -70 1 -97 -10 -97 -41 0 -24 14 -28 120 -36 89 -7 90 -7 90 -33 0 -28 -16 -89 -28 -107 -5 -9 -38 -2 -115 23 -118 38 -141 35 -135 -16 3 -23 14 -30 100 -61 54 -19 98 -39 98 -43 0 -12 -91 -107 -103 -107 -5 0 -41 25 -79 56 -69 56 -92 63 -111 33 -15 -25 -4 -43 62 -96 33 -26 60 -51 60 -54 1 -7 -119 -66 -174 -86 -212 -75 -529 -82 -755 -16 -92 26 -230 88 -230 103 0 5 27 30 60 55 62 48 85 89 59 106 -26 16 -47 9 -109 -38 -34 -27 -68 -52 -76 -58 -10 -7 -26 3 -64 40 -27 27 -50 54 -50 60 0 6 38 23 84 39 78 26 126 55 126 76 0 5 -7 15 -15 23 -16 17 -40 13 -168 -27 l-77 -24 -15 52 c-27 97 -32 90 71 97 94 7 134 20 134 43 0 31 -30 40 -131 38 l-99 -3 0 33 c0 60 28 164 70 266 l41 101 -20 73 c-51 185 -53 397 -5 490 19 36 41 36 121 -4z"/>
    <path d="M917 2613 c-15 -15 -5 -51 24 -92 l32 -43 -67 -67 c-57 -57 -67 -73 -64 -97 5 -47 32 -41 105 24 38 33 83 73 102 89 43 37 38 53 -38 132 -55 57 -78 70 -94 54z"/>
    <path d="M2058 2559 c-55 -57 -69 -89 -50 -114 4 -6 30 -28 59 -48 29 -21 66 -56 83 -78 34 -43 63 -50 80 -20 17 33 12 42 -59 111 l-69 67 29 46 c16 26 29 58 29 72 0 45 -38 31 -102 -36z"/>
    <path d="M1150 2073 c-47 -24 -77 -73 -85 -137 -12 -91 20 -167 81 -192 116 -49 211 37 202 182 -3 43 -10 72 -24 91 -49 65 -115 87 -174 56z"/>
    <path d="M1815 2076 c-54 -24 -79 -71 -83 -156 -4 -89 14 -132 68 -168 94 -63 209 25 210 161 0 62 -19 105 -64 145 -40 35 -79 41 -131 18z"/>
    <path d="M1486 1800 c-35 -7 -55 -23 -56 -44 0 -5 16 -24 36 -43 43 -40 40 -57 -18 -83 -57 -26 -65 -25 -99 11 -36 39 -72 37 -77 -4 -4 -34 20 -74 54 -89 20 -10 24 -18 24 -57 0 -66 24 -155 51 -195 45 -67 134 -95 197 -62 63 33 106 110 123 218 9 59 17 78 40 102 33 32 44 64 34 95 -9 30 -50 27 -71 -4 -19 -30 -68 -34 -114 -10 -38 20 -38 45 0 83 17 17 30 35 30 40 0 33 -83 56 -154 42z m124 -390 c13 -8 12 -14 -5 -47 -11 -21 -33 -44 -49 -51 -25 -13 -31 -12 -55 5 -33 25 -51 81 -30 94 19 12 120 11 139 -1z"/>
    <path d="M1300 903 c-83 -6 -254 -33 -339 -53 -92 -22 -166 -58 -204 -99 -14 -14 -53 -96 -87 -181 -34 -85 -69 -168 -77 -183 -36 -70 -10 -130 74 -175 246 -131 860 -179 1353 -106 117 17 317 67 364 91 61 30 106 87 106 133 0 12 -34 105 -75 207 -52 131 -84 196 -106 219 -66 68 -216 113 -463 139 -133 13 -419 18 -546 8z m531 -88 c68 -8 154 -21 189 -29 118 -28 240 -76 240 -95 0 -11 -107 -54 -186 -75 -54 -15 -60 -15 -69 0 -49 79 -103 107 -198 106 -43 -1 -79 4 -97 13 -45 23 -115 19 -181 -11 l-59 -27 -42 19 c-31 14 -65 19 -128 19 -102 0 -166 -27 -208 -88 -25 -36 -30 -38 -67 -33 -56 7 -166 42 -190 61 -20 15 -20 15 3 34 109 93 629 149 993 106z m-417 -188 c52 -23 82 -21 141 8 62 30 107 31 152 4 33 -21 43 -21 113 -4 17 4 37 -2 60 -17 l35 -22 -45 -8 c-88 -16 -479 -21 -598 -8 l-114 13 20 20 c45 44 150 50 236 14z m-602 -36 c43 -26 153 -55 308 -83 110 -19 160 -22 410 -22 219 0 311 3 395 16 131 21 248 50 312 78 25 11 51 20 57 20 15 0 118 -263 111 -282 -14 -35 -188 -93 -384 -128 -422 -75 -1036 -33 -1298 90 -35 16 -63 32 -63 36 0 4 22 64 48 133 27 69 52 134 55 144 8 21 9 21 49 -2z"/>
  </g>
</svg>
